<svg xmlns="http://www.w3.org/2000/svg" viewBox="0 0 850 420">
  <defs>
    <linearGradient id="diskGrad" x1="0%" y1="0%" x2="100%" y2="100%">
      <stop offset="0%" style="stop-color:#10B981"/>
      <stop offset="100%" style="stop-color:#059669"/>
    </linearGradient>
    <linearGradient id="boxGrad" x1="0%" y1="0%" x2="100%" y2="100%">
      <stop offset="0%" style="stop-color:#3B82F6"/>
      <stop offset="100%" style="stop-color:#1E40AF"/>
    </linearGradient>
    <linearGradient id="heavyGrad" x1="0%" y1="0%" x2="100%" y2="100%">
      <stop offset="0%" style="stop-color:#8B5CF6"/>
      <stop offset="100%" style="stop-color:#6D28D9"/>
    </linearGradient>
    <marker id="arrowBox" markerWidth="10" markerHeight="10" refX="9" refY="3" orient="auto" markerUnits="strokeWidth">
      <path d="M0,0 L0,6 L9,3 z" fill="#6B7280"/>
    </marker>
  </defs>
  
  <!-- Title -->
  <text x="425" y="30" text-anchor="middle" font-family="Segoe UI, Arial" font-size="20" font-weight="600" fill="#1E3A5F">Azure Data Box — Transfer danych offline</text>
  <text x="425" y="52" text-anchor="middle" font-family="Segoe UI, Arial" font-size="13" fill="#6B7280">Fizyczne urządzenia do przenoszenia dużych ilości danych bez Internetu</text>
  
  <!-- Data Box Disk -->
  <rect x="30" y="80" width="250" height="310" rx="12" fill="url(#diskGrad)" opacity="0.1" stroke="#10B981" stroke-width="2"/>
  <rect x="30" y="80" width="250" height="50" rx="12" fill="url(#diskGrad)"/>
  <rect x="30" y="118" width="250" height="12" fill="url(#diskGrad)"/>
  
  <!-- Disk icon -->
  <ellipse cx="60" cy="105" rx="15" ry="8" fill="white" opacity="0.9"/>
  <ellipse cx="60" cy="105" rx="5" ry="3" fill="#059669"/>
  
  <text x="85" y="110" font-family="Segoe UI, Arial" font-size="16" font-weight="600" fill="white">Data Box Disk</text>
  
  <text x="155" y="155" text-anchor="middle" font-family="Segoe UI, Arial" font-size="28" font-weight="600" fill="#059669">40 TB</text>
  <text x="155" y="175" text-anchor="middle" font-family="Segoe UI, Arial" font-size="12" fill="#6B7280">max. pojemność</text>
  
  <!-- Disk specs -->
  <rect x="50" y="195" width="210" height="80" rx="8" fill="#D1FAE5"/>
  <text x="155" y="215" text-anchor="middle" font-family="Segoe UI, Arial" font-size="11" fill="#047857">• Szyfrowane dyski SSD USB</text>
  <text x="155" y="232" text-anchor="middle" font-family="Segoe UI, Arial" font-size="11" fill="#047857">• Do 5 dysków w zestawie</text>
  <text x="155" y="249" text-anchor="middle" font-family="Segoe UI, Arial" font-size="11" fill="#047857">• 8 TB na dysk</text>
  <text x="155" y="266" text-anchor="middle" font-family="Segoe UI, Arial" font-size="11" fill="#047857">• Lekkie, przenośne</text>
  
  <!-- Use cases -->
  <text x="50" y="300" font-family="Segoe UI, Arial" font-size="11" font-weight="600" fill="#374151">Zastosowanie:</text>
  <text x="50" y="318" font-family="Segoe UI, Arial" font-size="11" fill="#6B7280">✓ Mniejsze migracje</text>
  <text x="50" y="336" font-family="Segoe UI, Arial" font-size="11" fill="#6B7280">✓ Wiele lokalizacji</text>
  <text x="50" y="354" font-family="Segoe UI, Arial" font-size="11" fill="#6B7280">✓ Backup biur zdalnych</text>
  
  <rect x="50" y="370" width="210" height="15" rx="4" fill="#10B981" opacity="0.3"/>
  <rect x="50" y="370" width="70" height="15" rx="4" fill="#10B981"/>
  <text x="155" y="398" text-anchor="middle" font-family="Segoe UI, Arial" font-size="10" fill="#6B7280">Koszt: 💰</text>
  
  <!-- Data Box -->
  <rect x="300" y="80" width="250" height="310" rx="12" fill="url(#boxGrad)" opacity="0.1" stroke="#3B82F6" stroke-width="2"/>
  <rect x="300" y="80" width="250" height="50" rx="12" fill="url(#boxGrad)"/>
  <rect x="300" y="118" width="250" height="12" fill="url(#boxGrad)"/>
  
  <!-- Box icon -->
  <rect x="325" y="93" width="24" height="24" rx="3" fill="white" opacity="0.9"/>
  <rect x="329" y="97" width="16" height="16" rx="2" fill="#2563EB"/>
  
  <text x="360" y="110" font-family="Segoe UI, Arial" font-size="16" font-weight="600" fill="white">Data Box</text>
  
  <text x="425" y="155" text-anchor="middle" font-family="Segoe UI, Arial" font-size="28" font-weight="600" fill="#2563EB">100 TB</text>
  <text x="425" y="175" text-anchor="middle" font-family="Segoe UI, Arial" font-size="12" fill="#6B7280">max. pojemność</text>
  
  <!-- Box specs -->
  <rect x="320" y="195" width="210" height="80" rx="8" fill="#DBEAFE"/>
  <text x="425" y="215" text-anchor="middle" font-family="Segoe UI, Arial" font-size="11" fill="#1E40AF">• Urządzenie NAS w walizce</text>
  <text x="425" y="232" text-anchor="middle" font-family="Segoe UI, Arial" font-size="11" fill="#1E40AF">• SMB / NFS / REST</text>
  <text x="425" y="249" text-anchor="middle" font-family="Segoe UI, Arial" font-size="11" fill="#1E40AF">• Wysoka przepustowość lokalna</text>
  <text x="425" y="266" text-anchor="middle" font-family="Segoe UI, Arial" font-size="11" fill="#1E40AF">• ~50kg, odporne na wstrząsy</text>
  
  <!-- Use cases -->
  <text x="320" y="300" font-family="Segoe UI, Arial" font-size="11" font-weight="600" fill="#374151">Zastosowanie:</text>
  <text x="320" y="318" font-family="Segoe UI, Arial" font-size="11" fill="#6B7280">✓ Duże migracje datacenter</text>
  <text x="320" y="336" font-family="Segoe UI, Arial" font-size="11" fill="#6B7280">✓ Disaster recovery</text>
  <text x="320" y="354" font-family="Segoe UI, Arial" font-size="11" fill="#6B7280">✓ Regularne transfery archiwów</text>
  
  <rect x="320" y="370" width="210" height="15" rx="4" fill="#3B82F6" opacity="0.3"/>
  <rect x="320" y="370" width="140" height="15" rx="4" fill="#3B82F6"/>
  <text x="425" y="398" text-anchor="middle" font-family="Segoe UI, Arial" font-size="10" fill="#6B7280">Koszt: 💰💰</text>
  
  <!-- Data Box Heavy -->
  <rect x="570" y="80" width="250" height="310" rx="12" fill="url(#heavyGrad)" opacity="0.1" stroke="#8B5CF6" stroke-width="2"/>
  <rect x="570" y="80" width="250" height="50" rx="12" fill="url(#heavyGrad)"/>
  <rect x="570" y="118" width="250" height="12" fill="url(#heavyGrad)"/>
  
  <!-- Heavy icon -->
  <rect x="595" y="91" width="28" height="28" rx="4" fill="white" opacity="0.9"/>
  <rect x="600" y="96" width="18" height="18" rx="2" fill="#6D28D9"/>
  <circle cx="603" cy="119" r="3" fill="#6D28D9"/>
  <circle cx="615" cy="119" r="3" fill="#6D28D9"/>
  
  <text x="632" y="110" font-family="Segoe UI, Arial" font-size="16" font-weight="600" fill="white">Data Box Heavy</text>
  
  <text x="695" y="155" text-anchor="middle" font-family="Segoe UI, Arial" font-size="28" font-weight="600" fill="#6D28D9">1 PB</text>
  <text x="695" y="175" text-anchor="middle" font-family="Segoe UI, Arial" font-size="12" fill="#6B7280">max. pojemność</text>
  
  <!-- Heavy specs -->
  <rect x="590" y="195" width="210" height="80" rx="8" fill="#EDE9FE"/>
  <text x="695" y="215" text-anchor="middle" font-family="Segoe UI, Arial" font-size="11" fill="#5B21B6">• Przemysłowe urządzenie na kółkach</text>
  <text x="695" y="232" text-anchor="middle" font-family="Segoe UI, Arial" font-size="11" fill="#5B21B6">• 4x 40GbE porty sieciowe</text>
  <text x="695" y="249" text-anchor="middle" font-family="Segoe UI, Arial" font-size="11" fill="#5B21B6">• ~500kg, transport specjalny</text>
  <text x="695" y="266" text-anchor="middle" font-family="Segoe UI, Arial" font-size="11" fill="#5B21B6">• FIPS 140-2 Level 2</text>
  
  <!-- Use cases -->
  <text x="590" y="300" font-family="Segoe UI, Arial" font-size="11" font-weight="600" fill="#374151">Zastosowanie:</text>
  <text x="590" y="318" font-family="Segoe UI, Arial" font-size="11" fill="#6B7280">✓ Petabyte-scale migracje</text>
  <text x="590" y="336" font-family="Segoe UI, Arial" font-size="11" fill="#6B7280">✓ Media/video archives</text>
  <text x="590" y="354" font-family="Segoe UI, Arial" font-size="11" fill="#6B7280">✓ Data lakes, AI training data</text>
  
  <rect x="590" y="370" width="210" height="15" rx="4" fill="#8B5CF6" opacity="0.3"/>
  <rect x="590" y="370" width="210" height="15" rx="4" fill="#8B5CF6"/>
  <text x="695" y="398" text-anchor="middle" font-family="Segoe UI, Arial" font-size="10" fill="#6B7280">Koszt: 💰💰💰</text>
</svg>