<svg xmlns="http://www.w3.org/2000/svg" viewBox="0 0 600 280">
  <defs>
    <linearGradient id="appGrad" x1="0%" y1="0%" x2="100%" y2="100%">
      <stop offset="0%" style="stop-color:#2471a3;stop-opacity:1" />
      <stop offset="100%" style="stop-color:#3498db;stop-opacity:1" />
    </linearGradient>
    <linearGradient id="insightsGrad" x1="0%" y1="0%" x2="100%" y2="100%">
      <stop offset="0%" style="stop-color:#7d3c98;stop-opacity:1" />
      <stop offset="100%" style="stop-color:#9b59b6;stop-opacity:1" />
    </linearGradient>
    <linearGradient id="logsGrad" x1="0%" y1="0%" x2="100%" y2="100%">
      <stop offset="0%" style="stop-color:#1e8449;stop-opacity:1" />
      <stop offset="100%" style="stop-color:#27ae60;stop-opacity:1" />
    </linearGradient>
    <marker id="arrowBlue" markerWidth="10" markerHeight="10" refX="9" refY="3" orient="auto">
      <path d="M0,0 L0,6 L9,3 z" fill="#2980b9"/>
    </marker>
  </defs>
  
  <rect width="600" height="280" fill="#f8f9fa"/>
  <text x="300" y="25" text-anchor="middle" font-family="Segoe UI, Arial" font-size="16" font-weight="600" fill="#2c3e50">Application Insights + Log Analytics Flow</text>
  
  <!-- Application -->
  <rect x="20" y="50" width="130" height="200" rx="8" fill="url(#appGrad)"/>
  <text x="85" y="75" text-anchor="middle" font-family="Segoe UI, Arial" font-size="11" font-weight="600" fill="white">APLIKACJA</text>
  
  <rect x="30" y="90" width="110" height="30" rx="4" fill="white" fill-opacity="0.2"/>
  <text x="85" y="110" text-anchor="middle" font-family="Segoe UI, Arial" font-size="10" fill="white">App Service</text>
  
  <rect x="30" y="130" width="110" height="30" rx="4" fill="white" fill-opacity="0.2"/>
  <text x="85" y="150" text-anchor="middle" font-family="Segoe UI, Arial" font-size="10" fill="white">Functions</text>
  
  <rect x="30" y="170" width="110" height="30" rx="4" fill="white" fill-opacity="0.2"/>
  <text x="85" y="190" text-anchor="middle" font-family="Segoe UI, Arial" font-size="10" fill="white">AKS</text>
  
  <rect x="30" y="210" width="110" height="30" rx="4" fill="white" fill-opacity="0.2"/>
  <text x="85" y="230" text-anchor="middle" font-family="Segoe UI, Arial" font-size="10" fill="white">VM / Other</text>
  
  <!-- Arrow -->
  <line x1="150" y1="150" x2="185" y2="150" stroke="#2980b9" stroke-width="2" marker-end="url(#arrowBlue)"/>
  <text x="167" y="142" font-family="Segoe UI, Arial" font-size="8" fill="#2980b9">SDK</text>
  
  <!-- Application Insights -->
  <rect x="190" y="50" width="180" height="200" rx="8" fill="url(#insightsGrad)"/>
  <text x="280" y="75" text-anchor="middle" font-family="Segoe UI, Arial" font-size="11" font-weight="600" fill="white">APPLICATION INSIGHTS</text>
  
  <rect x="200" y="90" width="160" height="28" rx="3" fill="white" fill-opacity="0.2"/>
  <text x="280" y="108" text-anchor="middle" font-family="Segoe UI, Arial" font-size="10" fill="white">Requests + Dependencies</text>
  
  <rect x="200" y="125" width="160" height="28" rx="3" fill="white" fill-opacity="0.2"/>
  <text x="280" y="143" text-anchor="middle" font-family="Segoe UI, Arial" font-size="10" fill="white">Exceptions + Traces</text>
  
  <rect x="200" y="160" width="160" height="28" rx="3" fill="white" fill-opacity="0.2"/>
  <text x="280" y="178" text-anchor="middle" font-family="Segoe UI, Arial" font-size="10" fill="white">Performance Metrics</text>
  
  <rect x="200" y="195" width="160" height="28" rx="3" fill="white" fill-opacity="0.2"/>
  <text x="280" y="213" text-anchor="middle" font-family="Segoe UI, Arial" font-size="10" fill="white">Live Metrics Stream</text>
  
  <text x="280" y="242" text-anchor="middle" font-family="Segoe UI, Arial" font-size="8" fill="white">Auto-instrumentation</text>
  
  <!-- Arrow -->
  <line x1="370" y1="150" x2="405" y2="150" stroke="#2980b9" stroke-width="2" marker-end="url(#arrowBlue)"/>
  <text x="387" y="142" font-family="Segoe UI, Arial" font-size="8" fill="#2980b9">KQL</text>
  
  <!-- Log Analytics -->
  <rect x="410" y="50" width="170" height="200" rx="8" fill="url(#logsGrad)"/>
  <text x="495" y="75" text-anchor="middle" font-family="Segoe UI, Arial" font-size="11" font-weight="600" fill="white">LOG ANALYTICS</text>
  
  <rect x="420" y="90" width="150" height="28" rx="3" fill="white" fill-opacity="0.2"/>
  <text x="495" y="108" text-anchor="middle" font-family="Segoe UI, Arial" font-size="10" fill="white">KQL Queries</text>
  
  <rect x="420" y="125" width="150" height="28" rx="3" fill="white" fill-opacity="0.2"/>
  <text x="495" y="143" text-anchor="middle" font-family="Segoe UI, Arial" font-size="10" fill="white">Workbooks</text>
  
  <rect x="420" y="160" width="150" height="28" rx="3" fill="white" fill-opacity="0.2"/>
  <text x="495" y="178" text-anchor="middle" font-family="Segoe UI, Arial" font-size="10" fill="white">Cross-resource</text>
  
  <rect x="420" y="195" width="150" height="28" rx="3" fill="white" fill-opacity="0.2"/>
  <text x="495" y="213" text-anchor="middle" font-family="Segoe UI, Arial" font-size="10" fill="white">Retention 30-730d</text>
  
  <text x="495" y="242" text-anchor="middle" font-family="Segoe UI, Arial" font-size="8" fill="white">Centralne repozytorium</text>
</svg>