<svg xmlns="http://www.w3.org/2000/svg" viewBox="0 0 900 520">
  <defs>
    <linearGradient id="portalGrad" x1="0%" y1="0%" x2="100%" y2="100%">
      <stop offset="0%" style="stop-color:#3B82F6"/>
      <stop offset="100%" style="stop-color:#1E40AF"/>
    </linearGradient>
    <linearGradient id="cliGrad" x1="0%" y1="0%" x2="100%" y2="100%">
      <stop offset="0%" style="stop-color:#10B981"/>
      <stop offset="100%" style="stop-color:#059669"/>
    </linearGradient>
    <linearGradient id="iacGrad" x1="0%" y1="0%" x2="100%" y2="100%">
      <stop offset="0%" style="stop-color:#8B5CF6"/>
      <stop offset="100%" style="stop-color:#6D28D9"/>
    </linearGradient>
    <linearGradient id="cicdGrad" x1="0%" y1="0%" x2="100%" y2="100%">
      <stop offset="0%" style="stop-color:#F59E0B"/>
      <stop offset="100%" style="stop-color:#D97706"/>
    </linearGradient>
    <marker id="arrowDeploy" markerWidth="10" markerHeight="10" refX="9" refY="3" orient="auto" markerUnits="strokeWidth">
      <path d="M0,0 L0,6 L9,3 z" fill="#6B7280"/>
    </marker>
  </defs>
  
  <!-- Title -->
  <text x="450" y="30" text-anchor="middle" font-family="Segoe UI, Arial" font-size="20" font-weight="600" fill="#1E3A5F">Sposoby wdrazania aplikacji na Azure</text>
  
  <!-- Azure Portal -->
  <rect x="30" y="55" width="200" height="210" rx="12" fill="url(#portalGrad)" opacity="0.1" stroke="#3B82F6" stroke-width="2"/>
  <rect x="30" y="55" width="200" height="45" rx="12" fill="url(#portalGrad)"/>
  <rect x="30" y="88" width="200" height="12" fill="url(#portalGrad)"/>
  
  <!-- Portal icon -->
  <rect x="50" y="68" width="20" height="18" rx="3" fill="white" opacity="0.9"/>
  <rect x="53" y="71" width="6" height="12" fill="#1E40AF"/>
  <rect x="61" y="71" width="6" height="12" fill="#3B82F6"/>
  
  <text x="80" y="83" font-family="Segoe UI, Arial" font-size="14" font-weight="600" fill="white">Azure Portal</text>
  
  <g transform="translate(45, 115)">
    <circle cx="6" cy="6" r="5" fill="#3B82F6"/>
    <text x="16" y="10" font-family="Segoe UI, Arial" font-size="10" fill="#374151">GUI w przegladarce</text>
  </g>
  <g transform="translate(45, 135)">
    <circle cx="6" cy="6" r="5" fill="#3B82F6"/>
    <text x="16" y="10" font-family="Segoe UI, Arial" font-size="10" fill="#374151">Kreatory krok-po-kroku</text>
  </g>
  <g transform="translate(45, 155)">
    <circle cx="6" cy="6" r="5" fill="#3B82F6"/>
    <text x="16" y="10" font-family="Segoe UI, Arial" font-size="10" fill="#374151">Szybkie prototypy</text>
  </g>
  <g transform="translate(45, 175)">
    <circle cx="6" cy="6" r="5" fill="#3B82F6"/>
    <text x="16" y="10" font-family="Segoe UI, Arial" font-size="10" fill="#374151">Brak automatyzacji</text>
  </g>
  
  <rect x="45" y="200" width="170" height="50" rx="6" fill="#DBEAFE"/>
  <text x="130" y="220" text-anchor="middle" font-family="Segoe UI, Arial" font-size="9" font-weight="600" fill="#1E40AF">Kiedy uzywac:</text>
  <text x="130" y="238" text-anchor="middle" font-family="Segoe UI, Arial" font-size="9" fill="#1E40AF">Nauka, testy, szybkie POC</text>
  
  <!-- CLI / PowerShell -->
  <rect x="250" y="55" width="200" height="210" rx="12" fill="url(#cliGrad)" opacity="0.1" stroke="#10B981" stroke-width="2"/>
  <rect x="250" y="55" width="200" height="45" rx="12" fill="url(#cliGrad)"/>
  <rect x="250" y="88" width="200" height="12" fill="url(#cliGrad)"/>
  
  <!-- CLI icon -->
  <rect x="270" y="68" width="20" height="18" rx="3" fill="white" opacity="0.9"/>
  <text x="275" y="82" font-family="Consolas, monospace" font-size="9" fill="#059669">>_</text>
  
  <text x="298" y="83" font-family="Segoe UI, Arial" font-size="14" font-weight="600" fill="white">CLI / PowerShell</text>
  
  <g transform="translate(265, 115)">
    <circle cx="6" cy="6" r="5" fill="#10B981"/>
    <text x="16" y="10" font-family="Segoe UI, Arial" font-size="10" fill="#374151">Polecenia w terminalu</text>
  </g>
  <g transform="translate(265, 135)">
    <circle cx="6" cy="6" r="5" fill="#10B981"/>
    <text x="16" y="10" font-family="Segoe UI, Arial" font-size="10" fill="#374151">Skrypty automatyzujace</text>
  </g>
  <g transform="translate(265, 155)">
    <circle cx="6" cy="6" r="5" fill="#10B981"/>
    <text x="16" y="10" font-family="Segoe UI, Arial" font-size="10" fill="#374151">Cross-platform (CLI)</text>
  </g>
  <g transform="translate(265, 175)">
    <circle cx="6" cy="6" r="5" fill="#10B981"/>
    <text x="16" y="10" font-family="Segoe UI, Arial" font-size="10" fill="#374151">Cloud Shell w przegladarce</text>
  </g>
  
  <rect x="265" y="200" width="170" height="50" rx="6" fill="#D1FAE5"/>
  <text x="350" y="220" text-anchor="middle" font-family="Segoe UI, Arial" font-size="9" font-weight="600" fill="#047857">Kiedy uzywac:</text>
  <text x="350" y="238" text-anchor="middle" font-family="Segoe UI, Arial" font-size="9" fill="#047857">Automatyzacja, batch ops</text>
  
  <!-- IaC (ARM/Bicep/Terraform) -->
  <rect x="470" y="55" width="200" height="210" rx="12" fill="url(#iacGrad)" opacity="0.1" stroke="#8B5CF6" stroke-width="2"/>
  <rect x="470" y="55" width="200" height="45" rx="12" fill="url(#iacGrad)"/>
  <rect x="470" y="88" width="200" height="12" fill="url(#iacGrad)"/>
  
  <!-- IaC icon -->
  <rect x="490" y="68" width="20" height="18" rx="3" fill="white" opacity="0.9"/>
  <text x="495" y="82" font-family="Consolas, monospace" font-size="9" fill="#6D28D9">{}</text>
  
  <text x="520" y="83" font-family="Segoe UI, Arial" font-size="14" font-weight="600" fill="white">IaC (ARM/Bicep)</text>
  
  <g transform="translate(485, 115)">
    <circle cx="6" cy="6" r="5" fill="#8B5CF6"/>
    <text x="16" y="10" font-family="Segoe UI, Arial" font-size="10" fill="#374151">Deklaratywne szablony</text>
  </g>
  <g transform="translate(485, 135)">
    <circle cx="6" cy="6" r="5" fill="#8B5CF6"/>
    <text x="16" y="10" font-family="Segoe UI, Arial" font-size="10" fill="#374151">Wersjonowanie w Git</text>
  </g>
  <g transform="translate(485, 155)">
    <circle cx="6" cy="6" r="5" fill="#8B5CF6"/>
    <text x="16" y="10" font-family="Segoe UI, Arial" font-size="10" fill="#374151">Powtarzalne wdrozenia</text>
  </g>
  <g transform="translate(485, 175)">
    <circle cx="6" cy="6" r="5" fill="#8B5CF6"/>
    <text x="16" y="10" font-family="Segoe UI, Arial" font-size="10" fill="#374151">Idempotentnosc</text>
  </g>
  
  <rect x="485" y="200" width="170" height="50" rx="6" fill="#EDE9FE"/>
  <text x="570" y="220" text-anchor="middle" font-family="Segoe UI, Arial" font-size="9" font-weight="600" fill="#5B21B6">Kiedy uzywac:</text>
  <text x="570" y="238" text-anchor="middle" font-family="Segoe UI, Arial" font-size="9" fill="#5B21B6">Produkcja, multi-env, DR</text>
  
  <!-- CI/CD -->
  <rect x="690" y="55" width="200" height="210" rx="12" fill="url(#cicdGrad)" opacity="0.1" stroke="#F59E0B" stroke-width="2"/>
  <rect x="690" y="55" width="200" height="45" rx="12" fill="url(#cicdGrad)"/>
  <rect x="690" y="88" width="200" height="12" fill="url(#cicdGrad)"/>
  
  <!-- CI/CD icon -->
  <circle cx="715" cy="77" r="10" fill="white" opacity="0.9"/>
  <path d="M710 77 L720 77 M715 72 L715 82" stroke="#D97706" stroke-width="2"/>
  
  <text x="735" y="83" font-family="Segoe UI, Arial" font-size="14" font-weight="600" fill="white">CI/CD Pipelines</text>
  
  <g transform="translate(705, 115)">
    <circle cx="6" cy="6" r="5" fill="#F59E0B"/>
    <text x="16" y="10" font-family="Segoe UI, Arial" font-size="10" fill="#374151">Azure DevOps</text>
  </g>
  <g transform="translate(705, 135)">
    <circle cx="6" cy="6" r="5" fill="#F59E0B"/>
    <text x="16" y="10" font-family="Segoe UI, Arial" font-size="10" fill="#374151">GitHub Actions</text>
  </g>
  <g transform="translate(705, 155)">
    <circle cx="6" cy="6" r="5" fill="#F59E0B"/>
    <text x="16" y="10" font-family="Segoe UI, Arial" font-size="10" fill="#374151">Automatyczne buildy</text>
  </g>
  <g transform="translate(705, 175)">
    <circle cx="6" cy="6" r="5" fill="#F59E0B"/>
    <text x="16" y="10" font-family="Segoe UI, Arial" font-size="10" fill="#374151">Testy + deploy</text>
  </g>
  
  <rect x="705" y="200" width="170" height="50" rx="6" fill="#FEF3C7"/>
  <text x="790" y="220" text-anchor="middle" font-family="Segoe UI, Arial" font-size="9" font-weight="600" fill="#92400E">Kiedy uzywac:</text>
  <text x="790" y="238" text-anchor="middle" font-family="Segoe UI, Arial" font-size="9" fill="#92400E">Zespoly, produkcja, DevOps</text>
  
  <!-- Maturity arrow -->
  <text x="450" y="295" text-anchor="middle" font-family="Segoe UI, Arial" font-size="12" font-weight="600" fill="#6B7280">Dojrzalosc procesu wdrazania</text>
  <line x1="80" y1="310" x2="820" y2="310" stroke="#6B7280" stroke-width="2" marker-end="url(#arrowDeploy)"/>
  <text x="80" y="330" font-family="Segoe UI, Arial" font-size="10" fill="#9CA3AF">Reczne</text>
  <text x="820" y="330" text-anchor="end" font-family="Segoe UI, Arial" font-size="10" fill="#9CA3AF">W pelni zautomatyzowane</text>
  
  <!-- App Service Deployment Methods -->
  <rect x="30" y="355" width="860" height="150" rx="12" fill="#F8FAFC" stroke="#E5E7EB" stroke-width="2"/>
  <text x="460" y="380" text-anchor="middle" font-family="Segoe UI, Arial" font-size="14" font-weight="600" fill="#1E3A5F">Metody wdrazania do App Service</text>
  
  <!-- Method boxes -->
  <g transform="translate(50, 400)">
    <rect x="0" y="0" width="110" height="85" rx="8" fill="#DBEAFE" stroke="#3B82F6" stroke-width="1"/>
    <text x="55" y="20" text-anchor="middle" font-family="Segoe UI, Arial" font-size="11" font-weight="600" fill="#1E40AF">ZIP Deploy</text>
    <text x="55" y="40" text-anchor="middle" font-family="Segoe UI, Arial" font-size="9" fill="#374151">Upload ZIP</text>
    <text x="55" y="55" text-anchor="middle" font-family="Segoe UI, Arial" font-size="9" fill="#374151">az webapp deploy</text>
    <text x="55" y="75" text-anchor="middle" font-family="Segoe UI, Arial" font-size="8" fill="#6B7280">Najszybszy</text>
  </g>
  
  <g transform="translate(180, 400)">
    <rect x="0" y="0" width="110" height="85" rx="8" fill="#D1FAE5" stroke="#10B981" stroke-width="1"/>
    <text x="55" y="20" text-anchor="middle" font-family="Segoe UI, Arial" font-size="11" font-weight="600" fill="#047857">Git Deploy</text>
    <text x="55" y="40" text-anchor="middle" font-family="Segoe UI, Arial" font-size="9" fill="#374151">git push azure</text>
    <text x="55" y="55" text-anchor="middle" font-family="Segoe UI, Arial" font-size="9" fill="#374151">Local Git / GitHub</text>
    <text x="55" y="75" text-anchor="middle" font-family="Segoe UI, Arial" font-size="8" fill="#6B7280">Continuous</text>
  </g>
  
  <g transform="translate(310, 400)">
    <rect x="0" y="0" width="110" height="85" rx="8" fill="#EDE9FE" stroke="#8B5CF6" stroke-width="1"/>
    <text x="55" y="20" text-anchor="middle" font-family="Segoe UI, Arial" font-size="11" font-weight="600" fill="#5B21B6">Container</text>
    <text x="55" y="40" text-anchor="middle" font-family="Segoe UI, Arial" font-size="9" fill="#374151">Docker image</text>
    <text x="55" y="55" text-anchor="middle" font-family="Segoe UI, Arial" font-size="9" fill="#374151">ACR / Docker Hub</text>
    <text x="55" y="75" text-anchor="middle" font-family="Segoe UI, Arial" font-size="8" fill="#6B7280">Przenosnosc</text>
  </g>
  
  <g transform="translate(440, 400)">
    <rect x="0" y="0" width="110" height="85" rx="8" fill="#FEF3C7" stroke="#F59E0B" stroke-width="1"/>
    <text x="55" y="20" text-anchor="middle" font-family="Segoe UI, Arial" font-size="11" font-weight="600" fill="#92400E">FTP / FTPS</text>
    <text x="55" y="40" text-anchor="middle" font-family="Segoe UI, Arial" font-size="9" fill="#374151">Upload plikow</text>
    <text x="55" y="55" text-anchor="middle" font-family="Segoe UI, Arial" font-size="9" fill="#374151">FileZilla, WinSCP</text>
    <text x="55" y="75" text-anchor="middle" font-family="Segoe UI, Arial" font-size="8" fill="#6B7280">Legacy</text>
  </g>
  
  <g transform="translate(570, 400)">
    <rect x="0" y="0" width="110" height="85" rx="8" fill="#FEE2E2" stroke="#EF4444" stroke-width="1"/>
    <text x="55" y="20" text-anchor="middle" font-family="Segoe UI, Arial" font-size="11" font-weight="600" fill="#991B1B">VS Publish</text>
    <text x="55" y="40" text-anchor="middle" font-family="Segoe UI, Arial" font-size="9" fill="#374151">Visual Studio</text>
    <text x="55" y="55" text-anchor="middle" font-family="Segoe UI, Arial" font-size="9" fill="#374151">Right-click publish</text>
    <text x="55" y="75" text-anchor="middle" font-family="Segoe UI, Arial" font-size="8" fill="#6B7280">Dev only!</text>
  </g>
  
  <g transform="translate(700, 400)">
    <rect x="0" y="0" width="110" height="85" rx="8" fill="#CFFAFE" stroke="#06B6D4" stroke-width="1"/>
    <text x="55" y="20" text-anchor="middle" font-family="Segoe UI, Arial" font-size="11" font-weight="600" fill="#0891B2">Deployment Slots</text>
    <text x="55" y="40" text-anchor="middle" font-family="Segoe UI, Arial" font-size="9" fill="#374151">Staging + Swap</text>
    <text x="55" y="55" text-anchor="middle" font-family="Segoe UI, Arial" font-size="9" fill="#374151">Zero-downtime</text>
    <text x="55" y="75" text-anchor="middle" font-family="Segoe UI, Arial" font-size="8" fill="#6B7280">Blue-Green</text>
  </g>
</svg>