<svg xmlns="http://www.w3.org/2000/svg" viewBox="0 0 900 500">
  <defs>
    <linearGradient id="ehGrad" x1="0%" y1="0%" x2="100%" y2="100%">
      <stop offset="0%" style="stop-color:#667eea"/>
      <stop offset="100%" style="stop-color:#764ba2"/>
    </linearGradient>
    <linearGradient id="prodGrad" x1="0%" y1="0%" x2="100%" y2="0%">
      <stop offset="0%" style="stop-color:#11998e"/>
      <stop offset="100%" style="stop-color:#38ef7d"/>
    </linearGradient>
    <linearGradient id="consGrad" x1="0%" y1="0%" x2="100%" y2="0%">
      <stop offset="0%" style="stop-color:#ee0979"/>
      <stop offset="100%" style="stop-color:#ff6a00"/>
    </linearGradient>
    <filter id="shadow" x="-20%" y="-20%" width="140%" height="140%">
      <feDropShadow dx="3" dy="3" stdDeviation="4" flood-opacity="0.3"/>
    </filter>
  </defs>

  <!-- Background -->
  <rect width="900" height="500" fill="#f8fafc"/>
  
  <!-- Title -->
  <text x="450" y="35" text-anchor="middle" font-family="Segoe UI, Arial" font-size="24" font-weight="bold" fill="#1e293b">Azure Event Hub - Architektura</text>
  <text x="450" y="58" text-anchor="middle" font-family="Segoe UI, Arial" font-size="14" fill="#64748b">Streaming danych w skali milionow zdarzen na sekunde</text>

  <!-- Producers Section -->
  <rect x="30" y="100" width="180" height="340" rx="10" fill="#ecfdf5" stroke="#10b981" stroke-width="2" filter="url(#shadow)"/>
  <text x="120" y="130" text-anchor="middle" font-family="Segoe UI, Arial" font-size="16" font-weight="bold" fill="#065f46">Producenci</text>
  
  <!-- Producer 1: IoT -->
  <rect x="50" y="150" width="140" height="50" rx="8" fill="url(#prodGrad)" filter="url(#shadow)"/>
  <text x="120" y="180" text-anchor="middle" font-family="Segoe UI, Arial" font-size="13" fill="white" font-weight="bold">IoT Devices</text>
  
  <!-- Producer 2: Apps -->
  <rect x="50" y="215" width="140" height="50" rx="8" fill="url(#prodGrad)" filter="url(#shadow)"/>
  <text x="120" y="245" text-anchor="middle" font-family="Segoe UI, Arial" font-size="13" fill="white" font-weight="bold">Aplikacje</text>
  
  <!-- Producer 3: Logs -->
  <rect x="50" y="280" width="140" height="50" rx="8" fill="url(#prodGrad)" filter="url(#shadow)"/>
  <text x="120" y="310" text-anchor="middle" font-family="Segoe UI, Arial" font-size="13" fill="white" font-weight="bold">Logi/Metryki</text>
  
  <!-- Producer 4: Click -->
  <rect x="50" y="345" width="140" height="50" rx="8" fill="url(#prodGrad)" filter="url(#shadow)"/>
  <text x="120" y="375" text-anchor="middle" font-family="Segoe UI, Arial" font-size="13" fill="white" font-weight="bold">Clickstream</text>

  <!-- Arrows to Event Hub -->
  <path d="M210 175 L280 270" stroke="#10b981" stroke-width="3" fill="none" marker-end="url(#arrowGreen)"/>
  <path d="M210 240 L280 270" stroke="#10b981" stroke-width="3" fill="none"/>
  <path d="M210 305 L280 270" stroke="#10b981" stroke-width="3" fill="none"/>
  <path d="M210 370 L280 270" stroke="#10b981" stroke-width="3" fill="none"/>
  
  <!-- Green arrow marker -->
  <defs>
    <marker id="arrowGreen" markerWidth="10" markerHeight="10" refX="9" refY="3" orient="auto">
      <path d="M0,0 L0,6 L9,3 z" fill="#10b981"/>
    </marker>
    <marker id="arrowPurple" markerWidth="10" markerHeight="10" refX="9" refY="3" orient="auto">
      <path d="M0,0 L0,6 L9,3 z" fill="#764ba2"/>
    </marker>
    <marker id="arrowOrange" markerWidth="10" markerHeight="10" refX="9" refY="3" orient="auto">
      <path d="M0,0 L0,6 L9,3 z" fill="#ff6a00"/>
    </marker>
  </defs>

  <!-- Event Hub (Center) -->
  <rect x="290" y="120" width="320" height="300" rx="15" fill="url(#ehGrad)" filter="url(#shadow)"/>
  <text x="450" y="155" text-anchor="middle" font-family="Segoe UI, Arial" font-size="18" font-weight="bold" fill="white">Event Hub</text>
  
  <!-- Namespace label -->
  <rect x="320" y="170" width="260" height="25" rx="5" fill="rgba(255,255,255,0.2)"/>
  <text x="450" y="188" text-anchor="middle" font-family="Segoe UI, Arial" font-size="12" fill="white">Namespace: my-eventhub-ns</text>
  
  <!-- Partitions -->
  <text x="450" y="220" text-anchor="middle" font-family="Segoe UI, Arial" font-size="14" font-weight="bold" fill="white">Partycje (Partitions)</text>
  
  <rect x="320" y="235" width="120" height="35" rx="5" fill="rgba(255,255,255,0.9)"/>
  <text x="380" y="258" text-anchor="middle" font-family="Segoe UI, Arial" font-size="12" fill="#4c1d95" font-weight="bold">Partition 0</text>
  
  <rect x="320" y="280" width="120" height="35" rx="5" fill="rgba(255,255,255,0.9)"/>
  <text x="380" y="303" text-anchor="middle" font-family="Segoe UI, Arial" font-size="12" fill="#4c1d95" font-weight="bold">Partition 1</text>
  
  <rect x="320" y="325" width="120" height="35" rx="5" fill="rgba(255,255,255,0.9)"/>
  <text x="380" y="348" text-anchor="middle" font-family="Segoe UI, Arial" font-size="12" fill="#4c1d95" font-weight="bold">Partition 2</text>
  
  <rect x="320" y="370" width="120" height="35" rx="5" fill="rgba(255,255,255,0.9)"/>
  <text x="380" y="393" text-anchor="middle" font-family="Segoe UI, Arial" font-size="12" fill="#4c1d95" font-weight="bold">Partition N</text>
  
  <!-- Consumer Group -->
  <text x="520" y="258" text-anchor="middle" font-family="Segoe UI, Arial" font-size="11" fill="white">Consumer</text>
  <text x="520" y="273" text-anchor="middle" font-family="Segoe UI, Arial" font-size="11" fill="white">Group</text>
  <rect x="480" y="285" width="80" height="60" rx="8" fill="rgba(255,255,255,0.3)" stroke="white" stroke-width="2"/>
  <text x="520" y="310" text-anchor="middle" font-family="Segoe UI, Arial" font-size="10" fill="white">$Default</text>
  <text x="520" y="330" text-anchor="middle" font-family="Segoe UI, Arial" font-size="10" fill="white">Analytics</text>
  
  <!-- Retention info -->
  <text x="450" y="410" text-anchor="middle" font-family="Segoe UI, Arial" font-size="11" fill="rgba(255,255,255,0.9)">Retention: 1-90 dni (Premium: do 90 dni)</text>

  <!-- Arrows to Consumers -->
  <path d="M610 200 L680 175" stroke="#764ba2" stroke-width="3" fill="none" marker-end="url(#arrowPurple)"/>
  <path d="M610 270 L680 245" stroke="#764ba2" stroke-width="3" fill="none" marker-end="url(#arrowPurple)"/>
  <path d="M610 340 L680 315" stroke="#764ba2" stroke-width="3" fill="none" marker-end="url(#arrowPurple)"/>
  <path d="M610 390 L680 385" stroke="#764ba2" stroke-width="3" fill="none" marker-end="url(#arrowPurple)"/>

  <!-- Consumers Section -->
  <rect x="690" y="100" width="180" height="340" rx="10" fill="#fef3c7" stroke="#f59e0b" stroke-width="2" filter="url(#shadow)"/>
  <text x="780" y="130" text-anchor="middle" font-family="Segoe UI, Arial" font-size="16" font-weight="bold" fill="#92400e">Konsumenci</text>
  
  <!-- Consumer 1: Stream Analytics -->
  <rect x="710" y="150" width="140" height="50" rx="8" fill="url(#consGrad)" filter="url(#shadow)"/>
  <text x="780" y="180" text-anchor="middle" font-family="Segoe UI, Arial" font-size="12" fill="white" font-weight="bold">Stream Analytics</text>
  
  <!-- Consumer 2: Azure Functions -->
  <rect x="710" y="215" width="140" height="50" rx="8" fill="url(#consGrad)" filter="url(#shadow)"/>
  <text x="780" y="245" text-anchor="middle" font-family="Segoe UI, Arial" font-size="12" fill="white" font-weight="bold">Azure Functions</text>
  
  <!-- Consumer 3: Databricks -->
  <rect x="710" y="280" width="140" height="50" rx="8" fill="url(#consGrad)" filter="url(#shadow)"/>
  <text x="780" y="310" text-anchor="middle" font-family="Segoe UI, Arial" font-size="12" fill="white" font-weight="bold">Databricks/Spark</text>
  
  <!-- Consumer 4: Custom App -->
  <rect x="710" y="345" width="140" height="50" rx="8" fill="url(#consGrad)" filter="url(#shadow)"/>
  <text x="780" y="375" text-anchor="middle" font-family="Segoe UI, Arial" font-size="12" fill="white" font-weight="bold">Custom App</text>

  <!-- Bottom stats -->
  <rect x="30" y="455" width="840" height="35" rx="8" fill="#e0e7ff"/>
  <text x="450" y="478" text-anchor="middle" font-family="Segoe UI, Arial" font-size="12" fill="#3730a3" font-weight="bold">Miliony zdarzen/sek | AMQP, Kafka, HTTPS | Integracja: IoT Hub, Event Grid</text>
</svg>